<?xml version="1.0" encoding="utf-8"?>
<!-- Generator: Adobe Illustrator 18.1.1, SVG Export Plug-In . SVG Version: 6.00 Build 0)  -->
<svg version="1.1" id="Layer_1" xmlns="http://www.w3.org/2000/svg" xmlns:xlink="http://www.w3.org/1999/xlink" x="0px" y="0px"
	 viewBox="0 0 341.9 60" enable-background="new 0 0 341.9 60" xml:space="preserve">
<g>
	<path fill-rule="evenodd" clip-rule="evenodd" d="M308.5,10.8h-8.6l-4.6,39.7h6.1l0.9-9.6h3.1l0.8,9.6h6.3L308.5,10.8z M304.1,21.5
		l-1.2,13h2.3L304.1,21.5z"/>
	<path fill-rule="evenodd" clip-rule="evenodd" d="M221.8,10.8h-8.6l-4.7,39.7h6.1l0.9-9.6h3.1l0.8,9.6h6.3L221.8,10.8z M217.4,21.5
		l-1.1,13h2.3L217.4,21.5z"/>
	<path fill-rule="evenodd" clip-rule="evenodd" d="M172.1,10.8h-8.6l-4.6,39.7h6.1l0.9-9.6h3.1l0.8,9.6h6.2L172.1,10.8z M167.7,21.5
		l-1.2,13h2.3L167.7,21.5z"/>
	<polygon points="192.4,31 189.8,10.8 179.7,10.8 179.7,50.5 185.6,50.5 185.6,27.2 188.9,50.5 195.2,50.5 198.7,27.1 198.7,50.5 
		204.9,50.5 204.9,10.8 195.1,10.8 	"/>
	<rect x="248.7" y="10.8" width="6.9" height="39.7"/>
	<polygon points="291.6,50.5 291.6,44 284.3,44 284.3,10.8 277.3,10.8 277.3,50.5 	"/>
	<polygon points="273.6,50.5 273.6,44 266.3,44 266.3,10.8 259.3,10.8 259.3,50.5 	"/>
	<path fill-rule="evenodd" clip-rule="evenodd" d="M229.4,27.2v23.2h6.4V32.8c0-1.9,2.7,0.7,2.7,2.3V47c0,2.1,0.9,3.4,0.9,3.4l6.4,0
		c0,0-0.8-1.3-0.8-3.4V35.4c0-1.9,0-6.5-3.9-6.5c0,0,3.9-0.6,3.9-8.9c0-7.3-2.5-9.1-8.8-9.1h-6.7V27.2z M235.8,16.8l0,9.2
		c0,0,2.7,0.5,2.7-4.7C238.5,16,235.8,16.8,235.8,16.8"/>
	<path d="M315.6,16.1c0-3.1,2.5-5.5,5.7-5.5c3.2,0,5.7,2.5,5.7,5.6c0,3.1-2.5,5.5-5.7,5.5C318.1,21.7,315.6,19.2,315.6,16.1
		 M316.4,16.1c0,2.6,2.2,4.7,4.8,4.7c2.7,0,4.9-2.1,4.9-4.7c0-2.6-2.1-4.7-4.8-4.7C318.6,11.4,316.4,13.5,316.4,16.1"/>
	<polygon points="317.9,18 317.5,18 317.5,14.1 318.2,14.1 319.4,17.2 320.6,14.1 321.4,14.1 321.4,18 320.9,18 320.9,14.6 
		320.9,14.6 319.6,18 319.2,18 317.9,14.6 317.9,14.6 	"/>
	<path d="M324.5,18l-0.7-1.7h-1.1l0,1.7l-0.5,0l0-3.9h1.5c0.3,0,0.6,0,0.9,0.3c0.3,0.2,0.5,0.5,0.5,0.8c0,0.4-0.3,0.8-0.8,1l0.8,1.8
		H324.5z M323.6,15.9c0.3,0,0.5,0,0.7-0.2c0.2-0.1,0.2-0.3,0.2-0.5c0-0.2-0.1-0.4-0.3-0.5c-0.2-0.1-0.3-0.2-0.6-0.2l-1,0l0,1.4
		H323.6z"/>
	<path d="M110.6,10.8c-6.7,0-12.1,5.4-12.1,12.1c0,6.6,12.1,27.7,12.1,27.7s12.1-21.1,12.1-27.7C122.8,16.2,117.3,10.8,110.6,10.8"
		/>
	<path fill="#FFD100" d="M110.6,29.6c-3.7,0-6.7-3-6.7-6.6c0-3.7,3-6.6,6.7-6.6c3.7,0,6.7,3,6.7,6.6
		C117.3,26.7,114.3,29.6,110.6,29.6"/>
	<polygon points="139.9,31.4 136.5,10.8 126.5,10.8 126.5,50.6 132.2,50.5 132.2,25.3 137.4,50.5 145.7,50.5 145.7,10.8 139.9,10.8 
			"/>
	<path d="M69.2,30.8c0,4.1,0,8.2,0,12c0,10.8,15.5,9.4,15.5,1.1v-8.8h-6.3v8.1c0,3.1-3,3.1-3-0.2V30.7V18.3c0-3.3,3-3.3,3-0.2v8.1
		h6.3v-8.9c0-8.2-15.5-9.7-15.5,1.1C69.2,22.3,69.2,26.7,69.2,30.8"/>
	<path d="M49.9,30.8c0,0-0.1,8.2-0.1,12c0,10.8,15.5,9.4,15.5,1.1v-8.8h-6.2v8.1c0,3.1-3.1,3.1-3.1-0.2V30.7V18.3
		c0-3.3,3.1-3.3,3.1-0.2v8.1h6.2v-8.9c0-8.2-15.5-9.7-15.5,1.1C49.8,22.3,49.9,26.7,49.9,30.8"/>
	<polygon points="46.1,10.8 34.2,10.8 34.2,50.5 46.1,50.5 46.1,44 40.5,44 40.5,34.2 46.1,34.2 46.1,27 40.5,27 40.5,18.7 
		46.1,18.7 	"/>
	<path d="M30.4,25.9v-8.6c0-8.7-15.5-8.7-15.5,0v5.5c0,3.2,1.7,5.3,2,5.6c0.5,0.7,4.8,6,5.7,7.3c1.6,2.1,1.6,2.9,1.6,7
		c0,3.5-3.2,3.5-3.2,0v-7.7h-6.2v8.8c0,9,15.6,8.9,15.6-0.1c0-1.7,0.6-7.6-1.7-10.4c-2.1-2.5-5.4-6.7-6.6-8.3
		c-1.5-2-1.2-3.4-1.2-7.3c0-2.3,3.2-2.4,3.2,0.1v8.1H30.4z"/>
	<rect x="88.4" y="10.8" width="6.3" height="39.8"/>
</g>
</svg>
